<svg width="29" height="29" viewBox="0 0 29 29" fill="none" xmlns="http://www.w3.org/2000/svg">
<path d="M21.4109 9.51546V2.37891H9.51668V4.75776H3.56955L2.38013 7.13661H9.51668V9.51546H2.38013V26.1674H26.1686V9.51546H21.4109ZM9.51668 23.7886H4.75898V21.4097H9.51668V23.7886ZM9.51668 19.0309H4.75898V16.652H9.51668V19.0309ZM9.51668 14.2732H4.75898V11.8943H9.51668V14.2732ZM19.0321 23.7886H11.8955V4.75776H19.0321V23.7886ZM23.7898 23.7886H21.4109V21.4097H23.7898V23.7886ZM23.7898 19.0309H21.4109V16.652H23.7898V19.0309ZM23.7898 14.2732H21.4109V11.8943H23.7898V14.2732Z" fill="#1E322D"/>
<path d="M16.6533 8.32617H14.2744V11.8944L16.6533 10.705V8.32617ZM16.6533 14.2733H14.2744V17.8416L16.6533 16.6522V14.2733Z" fill="#1E322D"/>
</svg>
