<?xml version="1.0" encoding="UTF-8"?>
<svg version="1.1" xmlns="http://www.w3.org/2000/svg" width="20" height="20">
<path d="M0 0 C0.73734375 0.00773438 1.4746875 0.01546875 2.234375 0.0234375 C3.34039063 0.01183594 3.34039063 0.01183594 4.46875 0 C9.9810554 0.0201179 9.9810554 0.0201179 12.234375 2.2734375 C12.43289602 4.98266551 12.51276977 7.56646929 12.484375 10.2734375 C12.49210937 11.01078125 12.49984375 11.748125 12.5078125 12.5078125 C12.4876946 18.0201179 12.4876946 18.0201179 10.234375 20.2734375 C7.52514699 20.47195852 4.94134321 20.55183227 2.234375 20.5234375 C1.49703125 20.53117187 0.7596875 20.53890625 0 20.546875 C-5.5123054 20.5267571 -5.5123054 20.5267571 -7.765625 18.2734375 C-7.96414602 15.56420949 -8.04401977 12.98040571 -8.015625 10.2734375 C-8.02335938 9.53609375 -8.03109375 8.79875 -8.0390625 8.0390625 C-8.01420108 1.22703341 -6.81202909 0.02486142 0 0 Z M-4.56640625 3.47265625 C-6.14733419 5.84662296 -6.16594942 7.43710259 -6.140625 10.2734375 C-6.14835938 11.1396875 -6.15609375 12.0059375 -6.1640625 12.8984375 C-5.93102935 15.29614912 -5.93102935 15.29614912 -4.5546875 17.0625 C-2.18886594 18.66382027 -0.60547342 18.67379329 2.234375 18.6484375 C3.100625 18.65617187 3.966875 18.66390625 4.859375 18.671875 C7.25592936 18.43624725 7.25592936 18.43624725 9.03515625 17.07421875 C10.65654143 14.63950029 10.53477749 12.98376815 10.421875 10.0859375 C10.39480469 9.18488281 10.36773438 8.28382812 10.33984375 7.35546875 C10.30503906 6.66839844 10.27023438 5.98132813 10.234375 5.2734375 C9.244375 5.6034375 8.254375 5.9334375 7.234375 6.2734375 C6.904375 9.2434375 6.574375 12.2134375 6.234375 15.2734375 C3.924375 14.9434375 1.614375 14.6134375 -0.765625 14.2734375 C-1.425625 12.6234375 -2.085625 10.9734375 -2.765625 9.2734375 C-1.078125 7.2109375 -1.078125 7.2109375 1.234375 5.2734375 C3.984375 5.5234375 3.984375 5.5234375 6.234375 6.2734375 C6.564375 4.9534375 6.894375 3.6334375 7.234375 2.2734375 C5.63104709 2.19221826 4.02653474 2.13414616 2.421875 2.0859375 C1.52855469 2.05113281 0.63523437 2.01632813 -0.28515625 1.98046875 C-2.77724151 2.08499312 -2.77724151 2.08499312 -4.56640625 3.47265625 Z M1.234375 7.2734375 C0.574375 8.5934375 -0.085625 9.9134375 -0.765625 11.2734375 C1.214375 12.2634375 1.214375 12.2634375 3.234375 13.2734375 C3.894375 11.9534375 4.554375 10.6334375 5.234375 9.2734375 C3.914375 8.6134375 2.594375 7.9534375 1.234375 7.2734375 Z " fill="#1D312C" transform="translate(7.765625,-0.2734375)"/>
</svg>
