<?xml version="1.0" encoding="UTF-8"?>
<svg version="1.1" xmlns="http://www.w3.org/2000/svg" width="20" height="20">
<path d="M0 0 C7.71484375 -0.09765625 7.71484375 -0.09765625 10 0 C11 1 11 1 11.09765625 3.28515625 C11.08605469 4.20167969 11.07445312 5.11820313 11.0625 6.0625 C11.05347656 6.98160156 11.04445313 7.90070312 11.03515625 8.84765625 C11.02355469 9.55792969 11.01195312 10.26820312 11 11 C9.68 11 8.36 11 7 11 C7 8.69 7 6.38 7 4 C6.01 4.495 6.01 4.495 5 5 C4.34227572 8.02934491 4.34227572 8.02934491 4 11 C2.68 11 1.36 11 0 11 C0 7.37 0 3.74 0 0 Z " fill="#1D312D" transform="translate(7,7)"/>
<path d="M0 0 C1.32 0 2.64 0 4 0 C4 3.63 4 7.26 4 11 C2.68 11 1.36 11 0 11 C0 7.37 0 3.74 0 0 Z " fill="#1E312C" transform="translate(2,7)"/>
<path d="M0 0 C1.32 0 2.64 0 4 0 C4 1.32 4 2.64 4 4 C2.68 4 1.36 4 0 4 C0 2.68 0 1.36 0 0 Z " fill="#1D312C" transform="translate(2,2)"/>
</svg>
