<svg width="65" height="21" viewBox="0 0 65 21" fill="none" xmlns="http://www.w3.org/2000/svg">
<path d="M5.25586 6.2V20H3.49586V6.2H5.25586ZM11.8359 11.86V13.38H5.09586V11.86H11.8359ZM13.3759 6.2V20H11.6159V6.2H13.3759ZM20.6752 10.02C22.1419 10.02 23.2019 10.2867 23.8552 10.82C24.5219 11.3533 24.8552 12.1467 24.8552 13.2C24.8686 14.0667 24.6886 14.7467 24.3152 15.24C23.9419 15.72 23.3486 15.96 22.5352 15.96H16.8552V14.64H22.0952C22.5352 14.64 22.8219 14.4933 22.9552 14.2C23.0886 13.8933 23.1552 13.56 23.1552 13.2C23.1419 12.5733 22.9552 12.1267 22.5952 11.86C22.2352 11.5933 21.6219 11.46 20.7552 11.46C20.0486 11.46 19.4886 11.5667 19.0752 11.78C18.6752 11.98 18.3886 12.34 18.2152 12.86C18.0552 13.3667 17.9752 14.08 17.9752 15C17.9752 16.04 18.0752 16.8333 18.2752 17.38C18.4886 17.9267 18.8219 18.3 19.2752 18.5C19.7286 18.7 20.3286 18.8 21.0752 18.8C21.5952 18.8 22.1619 18.78 22.7752 18.74C23.4019 18.6867 23.9619 18.6267 24.4552 18.56L24.6352 19.7C24.3286 19.82 23.9486 19.92 23.4952 20C23.0552 20.08 22.5952 20.14 22.1152 20.18C21.6486 20.22 21.2286 20.24 20.8552 20.24C19.7352 20.24 18.8352 20.0733 18.1552 19.74C17.4752 19.3933 16.9752 18.8467 16.6552 18.1C16.3486 17.34 16.1952 16.34 16.1952 15.1C16.1952 13.82 16.3486 12.8133 16.6552 12.08C16.9752 11.3333 17.4619 10.8067 18.1152 10.5C18.7819 10.18 19.6352 10.02 20.6752 10.02ZM29.1774 10.26V20H27.4974V10.26H29.1774ZM28.7374 6.12C29.0841 6.12 29.2574 6.29333 29.2574 6.64V7.78C29.2574 8.12667 29.0841 8.3 28.7374 8.3H27.9374C27.5908 8.3 27.4174 8.12667 27.4174 7.78V6.64C27.4174 6.29333 27.5908 6.12 27.9374 6.12H28.7374ZM35.6184 10.02C36.2584 10.02 36.8917 10.1067 37.5184 10.28C38.145 10.44 38.745 10.6933 39.3184 11.04L39.2184 12.1C38.5917 11.9133 38.0384 11.7667 37.5584 11.66C37.0784 11.5533 36.565 11.5 36.0184 11.5C35.4584 11.5 35.005 11.6 34.6584 11.8C34.325 11.9867 34.0784 12.34 33.9184 12.86C33.7584 13.38 33.6784 14.12 33.6784 15.08C33.6784 16.04 33.7517 16.7867 33.8984 17.32C34.0584 17.8533 34.305 18.2267 34.6384 18.44C34.9717 18.6533 35.3984 18.76 35.9184 18.76C36.305 18.76 36.6517 18.7133 36.9584 18.62C37.2784 18.5133 37.6117 18.3467 37.9584 18.12C38.3184 17.8933 38.7384 17.6067 39.2184 17.26L39.3784 18.46C38.845 18.9533 38.2384 19.3733 37.5584 19.72C36.8784 20.0667 36.145 20.24 35.3584 20.24C34.1317 20.24 33.2517 19.8067 32.7184 18.94C32.1984 18.0733 31.9384 16.7933 31.9384 15.1C31.9384 13.8333 32.0717 12.8333 32.3384 12.1C32.605 11.3533 33.0117 10.82 33.5584 10.5C34.105 10.18 34.7917 10.02 35.6184 10.02ZM40.6984 6V20H39.3784L39.1784 18.3L38.9984 18.16V11.48L39.1184 11.18C39.065 10.8067 39.0317 10.4467 39.0184 10.1C39.005 9.75333 38.9984 9.38667 38.9984 9V6H40.6984ZM45.6032 10.26V20H43.9232V10.26H45.6032ZM45.1632 6.12C45.5099 6.12 45.6832 6.29333 45.6832 6.64V7.78C45.6832 8.12667 45.5099 8.3 45.1632 8.3H44.3632C44.0165 8.3 43.8432 8.12667 43.8432 7.78V6.64C43.8432 6.29333 44.0165 6.12 44.3632 6.12H45.1632Z" fill="white"/>
<path d="M51.9336 9.75C51.9336 8.7835 52.7171 8 53.6836 8V8C54.6501 8 55.4336 8.7835 55.4336 9.75V18.25C55.4336 19.2165 54.6501 20 53.6836 20V20C52.7171 20 51.9336 19.2165 51.9336 18.25V9.75Z" fill="white"/>
<rect x="56.25" y="8" width="3.5" height="12" rx="1.75" fill="white"/>
<rect x="60.5664" y="8" width="3.5" height="12" rx="1.75" fill="white"/>
</svg>
