<svg width="62" height="21" viewBox="0 0 62 21" fill="none" xmlns="http://www.w3.org/2000/svg">
<path d="M3.75586 6.2V20H1.99586V6.2H3.75586ZM10.3359 11.86V13.38H3.59586V11.86H10.3359ZM11.8759 6.2V20H10.1159V6.2H11.8759ZM19.1752 10.02C20.6419 10.02 21.7019 10.2867 22.3552 10.82C23.0219 11.3533 23.3552 12.1467 23.3552 13.2C23.3686 14.0667 23.1886 14.7467 22.8152 15.24C22.4419 15.72 21.8486 15.96 21.0352 15.96H15.3552V14.64H20.5952C21.0352 14.64 21.3219 14.4933 21.4552 14.2C21.5886 13.8933 21.6552 13.56 21.6552 13.2C21.6419 12.5733 21.4552 12.1267 21.0952 11.86C20.7352 11.5933 20.1219 11.46 19.2552 11.46C18.5486 11.46 17.9886 11.5667 17.5752 11.78C17.1752 11.98 16.8886 12.34 16.7152 12.86C16.5552 13.3667 16.4752 14.08 16.4752 15C16.4752 16.04 16.5752 16.8333 16.7752 17.38C16.9886 17.9267 17.3219 18.3 17.7752 18.5C18.2286 18.7 18.8286 18.8 19.5752 18.8C20.0952 18.8 20.6619 18.78 21.2752 18.74C21.9019 18.6867 22.4619 18.6267 22.9552 18.56L23.1352 19.7C22.8286 19.82 22.4486 19.92 21.9952 20C21.5552 20.08 21.0952 20.14 20.6152 20.18C20.1486 20.22 19.7286 20.24 19.3552 20.24C18.2352 20.24 17.3352 20.0733 16.6552 19.74C15.9752 19.3933 15.4752 18.8467 15.1552 18.1C14.8486 17.34 14.6952 16.34 14.6952 15.1C14.6952 13.82 14.8486 12.8133 15.1552 12.08C15.4752 11.3333 15.9619 10.8067 16.6152 10.5C17.2819 10.18 18.1352 10.02 19.1752 10.02ZM27.6774 10.26V20H25.9974V10.26H27.6774ZM27.2374 6.12C27.5841 6.12 27.7574 6.29333 27.7574 6.64V7.78C27.7574 8.12667 27.5841 8.3 27.2374 8.3H26.4374C26.0908 8.3 25.9174 8.12667 25.9174 7.78V6.64C25.9174 6.29333 26.0908 6.12 26.4374 6.12H27.2374ZM34.1184 10.02C34.7584 10.02 35.3917 10.1067 36.0184 10.28C36.645 10.44 37.245 10.6933 37.8184 11.04L37.7184 12.1C37.0917 11.9133 36.5384 11.7667 36.0584 11.66C35.5784 11.5533 35.065 11.5 34.5184 11.5C33.9584 11.5 33.505 11.6 33.1584 11.8C32.825 11.9867 32.5784 12.34 32.4184 12.86C32.2584 13.38 32.1784 14.12 32.1784 15.08C32.1784 16.04 32.2517 16.7867 32.3984 17.32C32.5584 17.8533 32.805 18.2267 33.1384 18.44C33.4717 18.6533 33.8984 18.76 34.4184 18.76C34.805 18.76 35.1517 18.7133 35.4584 18.62C35.7784 18.5133 36.1117 18.3467 36.4584 18.12C36.8184 17.8933 37.2384 17.6067 37.7184 17.26L37.8784 18.46C37.345 18.9533 36.7384 19.3733 36.0584 19.72C35.3784 20.0667 34.645 20.24 33.8584 20.24C32.6317 20.24 31.7517 19.8067 31.2184 18.94C30.6984 18.0733 30.4384 16.7933 30.4384 15.1C30.4384 13.8333 30.5717 12.8333 30.8384 12.1C31.105 11.3533 31.5117 10.82 32.0584 10.5C32.605 10.18 33.2917 10.02 34.1184 10.02ZM39.1984 6V20H37.8784L37.6784 18.3L37.4984 18.16V11.48L37.6184 11.18C37.565 10.8067 37.5317 10.4467 37.5184 10.1C37.505 9.75333 37.4984 9.38667 37.4984 9V6H39.1984ZM44.1032 10.26V20H42.4232V10.26H44.1032ZM43.6632 6.12C44.0099 6.12 44.1832 6.29333 44.1832 6.64V7.78C44.1832 8.12667 44.0099 8.3 43.6632 8.3H42.8632C42.5165 8.3 42.3432 8.12667 42.3432 7.78V6.64C42.3432 6.29333 42.5165 6.12 42.8632 6.12H43.6632Z" fill="white"/>
<path d="M48.9336 9.75C48.9336 8.7835 49.7171 8 50.6836 8V8C51.6501 8 52.4336 8.7835 52.4336 9.75V18.25C52.4336 19.2165 51.6501 20 50.6836 20V20C49.7171 20 48.9336 19.2165 48.9336 18.25V9.75Z" fill="white"/>
<rect x="53.25" y="8" width="3.5" height="12" rx="1.75" fill="white"/>
<rect x="57.5664" y="8" width="3.5" height="12" rx="1.75" fill="white"/>
</svg>
