<svg width="29" height="29" viewBox="0 0 29 29" fill="none" xmlns="http://www.w3.org/2000/svg">
<path d="M21.4109 9.51534V2.37878H9.51662V4.75764H3.5695L2.38007 7.13649H9.51662V9.51534H2.38007V26.1673H26.1686V9.51534H21.4109ZM9.51662 23.7884H4.75892V21.4096H9.51662V23.7884ZM9.51662 19.0307H4.75892V16.6519H9.51662V19.0307ZM9.51662 14.273H4.75892V11.8942H9.51662V14.273ZM19.032 23.7884H11.8955V4.75764H19.032V23.7884ZM23.7897 23.7884H21.4109V21.4096H23.7897V23.7884ZM23.7897 19.0307H21.4109V16.6519H23.7897V19.0307ZM23.7897 14.273H21.4109V11.8942H23.7897V14.273Z" fill="black"/>
<path d="M16.6533 8.32593H14.2745V11.8942L16.6533 10.7048V8.32593ZM16.6533 14.2731H14.2745V17.8413L16.6533 16.6519V14.2731Z" fill="black"/>
</svg>
