<svg width="79" height="66" viewBox="0 0 79 66" fill="none" xmlns="http://www.w3.org/2000/svg">
<path d="M0 11.4231C0 5.11429 5.11429 0 11.4231 0C17.7319 0 22.8462 5.11429 22.8462 11.4231V54.5769C22.8462 60.8857 17.7319 66 11.4231 66C5.11429 66 0 60.8857 0 54.5769V11.4231Z" fill="white"/>
<path d="M27.9231 11.4231C27.9231 5.11429 33.0374 0 39.3462 0C45.6549 0 50.7692 5.11429 50.7692 11.4231V54.5769C50.7692 60.8857 45.6549 66 39.3462 66C33.0374 66 27.9231 60.8857 27.9231 54.5769V11.4231Z" fill="white"/>
<path d="M55.8462 11.4231C55.8462 5.11429 60.9604 0 67.2692 0C73.578 0 78.6923 5.11429 78.6923 11.4231V54.5769C78.6923 60.8857 73.578 66 67.2692 66C60.9604 66 55.8462 60.8857 55.8462 54.5769V11.4231Z" fill="white"/>
</svg>
