<?xml version="1.0" encoding="UTF-8"?>
<svg version="1.1" xmlns="http://www.w3.org/2000/svg" width="20" height="20">
<path d="M0 0 C3.1875 -0.3125 3.1875 -0.3125 7 0 C9.9375 2.5 9.9375 2.5 12 5 C12.598125 4.175 13.19625 3.35 13.8125 2.5 C14.534375 1.675 15.25625 0.85 16 0 C16.99 0 17.98 0 19 0 C17.98110061 2.27292941 17.19097369 3.83024561 15.3125 5.5 C14.6628125 6.2425 14.6628125 6.2425 14 7 C14.47439507 10.30638988 15.91540008 12.87813348 17.5625 15.75 C18.01753906 16.54921875 18.47257812 17.3484375 18.94140625 18.171875 C19.29074219 18.77515625 19.64007812 19.3784375 20 20 C16.8125 20.375 16.8125 20.375 13 20 C10.8596502 18.18811972 9.61011698 16.34198833 8 14 C6.35 15.98 4.7 17.96 3 20 C2.01 19.67 1.02 19.34 0 19 C1.98 16.69 3.96 14.38 6 12 C4.43358249 7.69235185 2.31663844 3.93828536 0 0 Z M6 4 C7 6 7 6 7 6 Z M8 7 C8.33 7.99 8.66 8.98 9 10 C9 9.01 9 8.02 9 7 C8.67 7 8.34 7 8 7 Z M10 10 C10.33 10.99 10.66 11.98 11 13 C11 12.01 11 11.02 11 10 C10.67 10 10.34 10 10 10 Z M12 13 C12.33 13.99 12.66 14.98 13 16 C13 15.01 13 14.02 13 13 C12.67 13 12.34 13 12 13 Z " fill="#1D312C" transform="translate(0,0)"/>
</svg>
