<?xml version="1.0" encoding="UTF-8"?>
<svg version="1.1" xmlns="http://www.w3.org/2000/svg" width="20" height="20">
<path d="M0 0 C1.2375 -0.00773438 1.2375 -0.00773438 2.5 -0.015625 C5 0.25 5 0.25 10 2.25 C10 6.21 10 10.17 10 14.25 C5.99542705 16.25228648 4.33001252 16.52165006 0 16.5 C-1.546875 16.50773437 -1.546875 16.50773437 -3.125 16.515625 C-6 16.25 -6 16.25 -10 14.25 C-10 10.29 -10 6.33 -10 2.25 C-5.85129333 0.59051733 -4.16402395 -0.02602515 0 0 Z M-8 4.25 C-8.16053815 6.12321948 -8.16053815 6.12321948 -8.125 8.25 C-8.12757812 8.971875 -8.13015625 9.69375 -8.1328125 10.4375 C-8.19695276 12.27089415 -8.19695276 12.27089415 -7 13.25 C-4.66839945 13.34909302 -2.33370058 13.37970504 0 13.375 C1.27875 13.37757812 2.5575 13.38015625 3.875 13.3828125 C6.86687244 13.60860893 6.86687244 13.60860893 8 12.25 C8.16053815 10.37678052 8.16053815 10.37678052 8.125 8.25 C8.12757812 7.528125 8.13015625 6.80625 8.1328125 6.0625 C8.19695276 4.22910585 8.19695276 4.22910585 7 3.25 C4.66839945 3.15090698 2.33370058 3.12029496 0 3.125 C-1.27875 3.12242188 -2.5575 3.11984375 -3.875 3.1171875 C-6.86687244 2.89139107 -6.86687244 2.89139107 -8 4.25 Z " fill="#1D312C" transform="translate(10,1.75)"/>
<path d="M0 0 C1.98 0.66 3.96 1.32 6 2 C6 2.66 6 3.32 6 4 C4.02 4.99 2.04 5.98 0 7 C0 4.69 0 2.38 0 0 Z " fill="#1D312C" transform="translate(8,7)"/>
</svg>
